<svg width="760" height="455" viewBox="0 0 760 455" fill="none" xmlns="http://www.w3.org/2000/svg">
<rect x="17.5" y="18.5" width="724" height="418" rx="42.5" fill="#EAEBEA" stroke="#00B9B7" stroke-width="25"/>
<path d="M403.128 198V114.364H453.604V123.348H413.256V151.608H450.99V160.592H413.256V189.016H454.257V198H403.128ZM489.01 199.47C485.035 199.47 481.428 198.721 478.188 197.224C474.948 195.699 472.376 193.508 470.47 190.649C468.564 187.763 467.611 184.278 467.611 180.195C467.611 176.601 468.319 173.688 469.735 171.455C471.15 169.196 473.043 167.426 475.411 166.146C477.78 164.867 480.393 163.914 483.252 163.288C486.138 162.634 489.038 162.117 491.951 161.736C495.762 161.246 498.852 160.878 501.221 160.633C503.617 160.361 505.359 159.912 506.448 159.286C507.564 158.659 508.123 157.57 508.123 156.018V155.692C508.123 151.662 507.02 148.531 504.815 146.299C502.637 144.067 499.329 142.95 494.891 142.95C490.29 142.95 486.683 143.958 484.069 145.972C481.455 147.987 479.618 150.138 478.556 152.425L469.408 149.158C471.042 145.346 473.22 142.379 475.942 140.255C478.692 138.104 481.687 136.607 484.926 135.763C488.194 134.892 491.406 134.456 494.564 134.456C496.579 134.456 498.893 134.701 501.507 135.191C504.148 135.654 506.693 136.62 509.143 138.091C511.621 139.561 513.676 141.78 515.31 144.747C516.944 147.715 517.76 151.69 517.76 156.672V198H508.123V189.506H507.632C506.979 190.867 505.89 192.324 504.365 193.875C502.841 195.427 500.813 196.748 498.281 197.837C495.749 198.926 492.659 199.47 489.01 199.47ZM490.48 190.812C494.292 190.812 497.505 190.064 500.118 188.566C502.759 187.069 504.747 185.136 506.081 182.767C507.442 180.399 508.123 177.908 508.123 175.294V166.473C507.714 166.963 506.816 167.412 505.427 167.821C504.066 168.202 502.487 168.542 500.69 168.842C498.92 169.114 497.192 169.359 495.504 169.577C493.843 169.767 492.495 169.931 491.461 170.067C488.956 170.393 486.614 170.924 484.436 171.659C482.286 172.367 480.543 173.443 479.209 174.886C477.902 176.301 477.249 178.234 477.249 180.685C477.249 184.033 478.488 186.565 480.965 188.281C483.47 189.969 486.642 190.812 490.48 190.812ZM579.783 149.321L571.125 151.771C570.581 150.328 569.778 148.926 568.716 147.565C567.681 146.176 566.266 145.033 564.469 144.135C562.672 143.236 560.371 142.787 557.567 142.787C553.728 142.787 550.529 143.672 547.97 145.441C545.438 147.184 544.172 149.403 544.172 152.098C544.172 154.494 545.044 156.386 546.786 157.775C548.528 159.163 551.251 160.32 554.954 161.246L564.265 163.533C569.873 164.894 574.052 166.977 576.802 169.781C579.552 172.558 580.927 176.138 580.927 180.521C580.927 184.115 579.892 187.328 577.823 190.159C575.781 192.991 572.922 195.223 569.247 196.857C565.571 198.49 561.297 199.307 556.424 199.307C550.026 199.307 544.73 197.918 540.538 195.141C536.345 192.364 533.691 188.308 532.574 182.972L541.722 180.685C542.593 184.061 544.24 186.593 546.663 188.281C549.114 189.969 552.313 190.812 556.26 190.812C560.753 190.812 564.319 189.86 566.96 187.954C569.628 186.021 570.962 183.707 570.962 181.011C570.962 178.833 570.2 177.009 568.675 175.539C567.151 174.042 564.809 172.925 561.651 172.19L551.196 169.74C545.452 168.379 541.232 166.269 538.537 163.41C535.869 160.524 534.535 156.917 534.535 152.588C534.535 149.049 535.528 145.918 537.516 143.195C539.53 140.473 542.267 138.336 545.724 136.784C549.209 135.232 553.157 134.456 557.567 134.456C563.775 134.456 568.648 135.817 572.187 138.54C575.754 141.262 578.286 144.856 579.783 149.321ZM601.642 221.523C600.008 221.523 598.552 221.387 597.272 221.114C595.992 220.869 595.108 220.624 594.618 220.379L597.068 211.885C599.409 212.484 601.478 212.702 603.275 212.538C605.072 212.375 606.665 211.572 608.053 210.129C609.469 208.713 610.762 206.413 611.933 203.227L613.73 198.327L590.534 135.273H600.988L618.304 185.259H618.957L636.272 135.273H646.727L620.1 207.148C618.903 210.388 617.419 213.069 615.649 215.193C613.879 217.344 611.824 218.936 609.483 219.971C607.168 221.005 604.555 221.523 601.642 221.523Z" fill="#575E60"/>
<path d="M473.696 298.182C473.696 307.003 472.103 314.626 468.918 321.051C465.733 327.476 461.363 332.431 455.809 335.916C450.255 339.401 443.911 341.143 436.778 341.143C429.645 341.143 423.302 339.401 417.748 335.916C412.194 332.431 407.824 327.476 404.639 321.051C401.453 314.626 399.861 307.003 399.861 298.182C399.861 289.361 401.453 281.738 404.639 275.312C407.824 268.887 412.194 263.932 417.748 260.447C423.302 256.963 429.645 255.22 436.778 255.22C443.911 255.22 450.255 256.963 455.809 260.447C461.363 263.932 465.733 268.887 468.918 275.312C472.103 281.738 473.696 289.361 473.696 298.182ZM463.895 298.182C463.895 290.94 462.683 284.828 460.26 279.846C457.864 274.863 454.611 271.093 450.5 268.533C446.416 265.974 441.842 264.695 436.778 264.695C431.714 264.695 427.127 265.974 423.016 268.533C418.932 271.093 415.679 274.863 413.256 279.846C410.86 284.828 409.662 290.94 409.662 298.182C409.662 305.424 410.86 311.536 413.256 316.518C415.679 321.5 418.932 325.271 423.016 327.83C427.127 330.389 431.714 331.669 436.778 331.669C441.842 331.669 446.416 330.389 450.5 327.83C454.611 325.271 457.864 321.5 460.26 316.518C462.683 311.536 463.895 305.424 463.895 298.182ZM500.853 256.364V340H490.725V256.364H500.853ZM546.97 340H521.16V256.364H548.113C556.226 256.364 563.169 258.038 568.941 261.387C574.712 264.708 579.137 269.486 582.213 275.721C585.289 281.928 586.828 289.361 586.828 298.018C586.828 306.731 585.276 314.231 582.172 320.52C579.068 326.782 574.549 331.601 568.614 334.977C562.679 338.326 555.464 340 546.97 340ZM531.288 331.016H546.316C553.232 331.016 558.963 329.682 563.509 327.013C568.056 324.345 571.445 320.547 573.678 315.62C575.91 310.692 577.027 304.825 577.027 298.018C577.027 291.267 575.924 285.454 573.719 280.581C571.513 275.68 568.219 271.923 563.836 269.309C559.453 266.668 553.994 265.348 547.46 265.348H531.288V331.016ZM671.117 282.5H660.99C660.391 279.587 659.342 277.028 657.845 274.822C656.375 272.617 654.578 270.766 652.454 269.268C650.358 267.744 648.03 266.6 645.471 265.838C642.912 265.076 640.244 264.695 637.467 264.695C632.403 264.695 627.815 265.974 623.704 268.533C619.621 271.093 616.367 274.863 613.944 279.846C611.548 284.828 610.35 290.94 610.35 298.182C610.35 305.424 611.548 311.536 613.944 316.518C616.367 321.5 619.621 325.271 623.704 327.83C627.815 330.389 632.403 331.669 637.467 331.669C640.244 331.669 642.912 331.288 645.471 330.526C648.03 329.763 650.358 328.633 652.454 327.136C654.578 325.611 656.375 323.746 657.845 321.541C659.342 319.309 660.391 316.75 660.99 313.864H671.117C670.355 318.138 668.967 321.963 666.952 325.339C664.937 328.715 662.433 331.587 659.438 333.956C656.443 336.297 653.081 338.081 649.351 339.306C645.648 340.531 641.687 341.143 637.467 341.143C630.334 341.143 623.99 339.401 618.436 335.916C612.882 332.431 608.513 327.476 605.327 321.051C602.142 314.626 600.549 307.003 600.549 298.182C600.549 289.361 602.142 281.738 605.327 275.312C608.513 268.887 612.882 263.932 618.436 260.447C623.99 256.963 630.334 255.22 637.467 255.22C641.687 255.22 645.648 255.833 649.351 257.058C653.081 258.283 656.443 260.08 659.438 262.449C662.433 264.79 664.937 267.649 666.952 271.025C668.967 274.373 670.355 278.198 671.117 282.5Z" fill="#575E60"/>
<line x1="344" y1="98" x2="344" y2="358" stroke="#575E60" stroke-width="8" stroke-linecap="round"/>
<path fill-rule="evenodd" clip-rule="evenodd" d="M246.011 128.691C253.794 144.141 256.127 160.474 253.011 177.691C251.689 177.861 250.522 177.528 249.511 176.691C248.87 164.433 244.87 153.433 237.511 143.691C234.414 139.921 230.747 136.921 226.511 134.691C223.917 135.476 221.75 136.809 220.011 138.691C199.956 145.954 179.623 146.62 159.011 140.691C154.228 139.6 149.394 138.6 144.511 137.691C138.24 138.608 133.574 141.941 130.511 147.691C124.874 156.909 122.04 166.909 122.011 177.691C120.678 177.691 119.344 177.691 118.011 177.691C116.704 167.018 116.704 156.351 118.011 145.691C125.869 117.349 144.536 101.182 174.011 97.1912C188.085 95.6588 201.751 97.3254 215.011 102.191C223.491 105.664 228.658 111.831 230.511 120.691C232.739 123.159 235.573 124.326 239.011 124.191C241.713 125.203 244.046 126.703 246.011 128.691Z" fill="#E9E9E9"/>
<path fill-rule="evenodd" clip-rule="evenodd" d="M243.011 118.691C242.272 118.56 241.605 118.727 241.011 119.191C242.905 120.27 243.238 121.604 242.011 123.191C243.678 124.524 245.344 125.858 247.011 127.191C246.455 127.574 246.122 128.074 246.011 128.691C244.046 126.703 241.713 125.203 239.011 124.191C235.573 124.326 232.739 123.159 230.511 120.691C228.658 111.831 223.491 105.664 215.011 102.191C201.751 97.3254 188.085 95.6588 174.011 97.1912C144.536 101.182 125.869 117.349 118.011 145.691C118.199 144.088 117.699 142.754 116.511 141.691C116.178 142.358 115.844 143.024 115.511 143.691C114.649 142.104 113.982 140.437 113.511 138.691C113.279 139.928 112.779 140.928 112.011 141.691C115.014 129.184 121.014 118.351 130.011 109.191C156.306 88.2766 185.306 83.6099 217.011 95.1912C227.142 99.1467 233.475 106.313 236.011 116.691C238.663 116.601 240.996 117.267 243.011 118.691Z" fill="#586061"/>
<path fill-rule="evenodd" clip-rule="evenodd" d="M238.011 234.692C230.394 259.476 214.06 275.309 189.011 282.192C177.703 282.369 167.703 278.869 159.011 271.692C144.192 261.367 135.525 247.367 133.011 229.692C159.325 232.356 175.992 220.856 183.011 195.192C186.932 194.233 190.099 195.4 192.511 198.692C199.181 221.958 214.681 232.791 239.011 231.192C238.174 232.203 237.841 233.37 238.011 234.692Z" fill="#EBEBEB"/>
<path fill-rule="evenodd" clip-rule="evenodd" d="M243.011 118.692C246.154 119.326 248.654 120.992 250.511 123.692C261.153 140.606 264.653 158.94 261.011 178.692C263.414 178.585 265.247 179.585 266.511 181.692C267.178 185.025 267.178 188.359 266.511 191.692C264.326 193.12 262.326 194.787 260.511 196.692C259.928 203.192 258.595 209.526 256.511 215.692C254.625 220.91 251.292 224.91 246.511 227.692C246.2 231.282 245.367 234.615 244.011 237.692C242.6 235.653 240.6 234.653 238.011 234.692C237.841 233.37 238.174 232.203 239.011 231.192C214.681 232.791 199.181 221.958 192.511 198.692C190.099 195.4 186.932 194.233 183.011 195.192C175.992 220.856 159.325 232.356 133.011 229.692C135.525 247.367 144.192 261.367 159.011 271.692C158.395 274.858 156.728 276.025 154.011 275.192C154.458 276.955 155.458 278.788 157.011 280.692C157.011 283.692 157.011 286.692 157.011 289.692C156.345 292.22 155.679 294.886 155.011 297.692C153.775 296.946 152.441 296.613 151.011 296.692C151.336 288.84 151.003 281.174 150.011 273.692C135.764 260.879 126.93 244.879 123.511 225.692C116.842 218.029 113.509 209.029 113.511 198.692C111.844 195.692 109.511 193.359 106.511 191.692C105.844 189.025 105.844 186.359 106.511 183.692C108.725 181.202 109.892 178.202 110.011 174.692C108.207 163.484 108.874 152.484 112.011 141.692C112.779 140.929 113.279 139.929 113.511 138.692C113.982 140.438 114.649 142.105 115.511 143.692C115.844 143.025 116.178 142.359 116.511 141.692C117.699 142.755 118.199 144.089 118.011 145.692C116.704 156.352 116.704 167.019 118.011 177.692C119.344 177.692 120.678 177.692 122.011 177.692C122.04 166.91 124.874 156.91 130.511 147.692C133.574 141.942 138.24 138.609 144.511 137.692C149.394 138.601 154.228 139.601 159.011 140.692C158.34 142.039 158.34 143.206 159.011 144.192C156.813 144.565 154.646 145.065 152.511 145.692C150.199 144.34 147.699 143.673 145.011 143.692C143.178 143.777 141.845 144.444 141.011 145.692C134.426 153.436 130.759 162.436 130.011 172.692C129.077 173.76 128.743 175.093 129.011 176.692C137.011 176.692 145.011 176.692 153.011 176.692C161.437 177.998 169.771 179.832 178.011 182.192C183.678 182.859 189.344 182.859 195.011 182.192C202.585 179.831 210.252 177.998 218.011 176.692C226.011 176.692 234.011 176.692 242.011 176.692C242.306 174.457 241.972 172.457 241.011 170.692C239.968 162.27 236.968 154.603 232.011 147.692C230.283 145.966 228.283 144.633 226.011 143.692C223.197 145.297 220.197 146.297 217.011 146.692C213.27 147.593 211.27 146.26 211.011 142.692C213.725 142.942 216.392 143.109 219.011 143.192C218.344 142.859 217.678 142.525 217.011 142.192C218.567 141.472 219.567 140.305 220.011 138.692C221.75 136.81 223.917 135.477 226.511 134.692C230.747 136.922 234.414 139.922 237.511 143.692C244.87 153.434 248.87 164.434 249.511 176.692C250.522 177.529 251.689 177.862 253.011 177.692C256.127 160.475 253.794 144.142 246.011 128.692C246.122 128.075 246.455 127.575 247.011 127.192C245.344 125.859 243.678 124.525 242.011 123.192C243.238 121.605 242.905 120.271 241.011 119.192C241.605 118.728 242.272 118.561 243.011 118.692Z" fill="#555D5C"/>
<path fill-rule="evenodd" clip-rule="evenodd" d="M219.011 182.692C232.409 182.465 245.743 183.298 259.011 185.192C259.819 185.5 260.486 186 261.011 186.692C258.017 188.854 255.517 191.52 253.511 194.692C253.438 203.488 251.271 211.655 247.011 219.192C231.853 226.935 218.353 224.769 206.511 212.692C201.128 205.546 198.795 197.546 199.511 188.692C205.784 185.542 212.284 183.542 219.011 182.692Z" fill="#00B9B7"/>
<path fill-rule="evenodd" clip-rule="evenodd" d="M121.011 201.692C121.011 199.359 121.011 197.025 121.011 194.692C122.678 194.692 124.344 194.692 126.011 194.692C125.862 193.64 126.028 192.64 126.511 191.692C128.208 190.235 129.708 188.569 131.011 186.692C128.856 186.191 127.189 185.191 126.011 183.692C138.726 182.179 151.392 182.679 164.011 185.192C167.912 185.868 171.412 187.368 174.511 189.692C174.407 207.142 165.907 218.309 149.011 223.192C131.069 227.072 121.735 219.906 121.011 201.692Z" fill="#00B9B7"/>
<path fill-rule="evenodd" clip-rule="evenodd" d="M133.011 185.691C134.954 187.586 136.454 189.919 137.511 192.691C138.95 190.916 139.95 188.916 140.511 186.691C141.404 185.48 142.237 185.48 143.011 186.691C141.441 190.266 139.441 193.599 137.011 196.691C135.849 194.367 134.682 192.033 133.511 189.691C131.844 192.358 130.178 195.024 128.511 197.691C128.186 195.638 128.52 193.638 129.511 191.691C130.942 189.827 132.108 187.827 133.011 185.691Z" fill="#E9E9E9"/>
<path fill-rule="evenodd" clip-rule="evenodd" d="M126.011 183.692C127.189 185.191 128.856 186.191 131.011 186.692C129.708 188.569 128.208 190.235 126.511 191.692C126.028 192.64 125.862 193.64 126.011 194.692C124.344 194.692 122.678 194.692 121.011 194.692C121.011 197.025 121.011 199.359 121.011 201.692C120.194 199.223 119.694 196.557 119.511 193.692C117.278 191.459 115.111 189.292 113.011 187.192C113.156 186.42 113.489 185.753 114.011 185.192C117.929 184.036 121.929 183.536 126.011 183.692Z" fill="#00B9B7"/>
<path fill-rule="evenodd" clip-rule="evenodd" d="M241.011 170.691C241.972 172.456 242.306 174.456 242.011 176.691C234.011 176.691 226.011 176.691 218.011 176.691C225.493 175.699 233.159 175.366 241.011 175.691C241.011 174.024 241.011 172.358 241.011 170.691Z" fill="#878A89"/>
<path fill-rule="evenodd" clip-rule="evenodd" d="M130.01 172.691C130.01 173.691 130.01 174.691 130.01 175.691C137.862 175.366 145.528 175.699 153.01 176.691C145.01 176.691 137.01 176.691 129.01 176.691C128.742 175.092 129.076 173.759 130.01 172.691Z" fill="#858887"/>
<path fill-rule="evenodd" clip-rule="evenodd" d="M241.011 170.691C241.011 172.358 241.011 174.024 241.011 175.691C233.159 175.366 225.493 175.699 218.011 176.691C210.252 177.997 202.585 179.83 195.011 182.191C189.344 182.858 183.678 182.858 178.011 182.191C169.771 179.831 161.437 177.997 153.011 176.691C145.529 175.699 137.863 175.366 130.011 175.691C130.011 174.691 130.011 173.691 130.011 172.691C130.759 162.435 134.426 153.435 141.011 145.691C142.328 145.37 143.662 145.037 145.011 144.691C163.812 151.887 183.145 154.054 203.011 151.191C208.088 150.596 212.755 149.096 217.011 146.691C220.197 146.296 223.197 145.296 226.011 143.691C228.283 144.632 230.283 145.965 232.011 147.691C236.968 154.602 239.968 162.269 241.011 170.691Z" fill="#EAEAE9"/>
<path fill-rule="evenodd" clip-rule="evenodd" d="M220.011 138.691C219.567 140.304 218.567 141.471 217.011 142.191C217.678 142.524 218.344 142.858 219.011 143.191C216.392 143.108 213.725 142.941 211.011 142.691C211.27 146.259 213.27 147.592 217.011 146.691C212.755 149.096 208.088 150.596 203.011 151.191C183.145 154.054 163.812 151.887 145.011 144.691C143.662 145.037 142.328 145.37 141.011 145.691C141.845 144.443 143.178 143.776 145.011 143.691C147.699 143.672 150.199 144.339 152.511 145.691C154.646 145.064 156.813 144.564 159.011 144.191C158.34 143.205 158.34 142.038 159.011 140.691C179.623 146.62 199.956 145.954 220.011 138.691Z" fill="#5E6666"/>
<path fill-rule="evenodd" clip-rule="evenodd" d="M238.011 234.692C240.6 234.653 242.6 235.653 244.011 237.692C240.429 252.114 232.929 264.114 221.511 273.692C220.844 282.359 220.844 291.025 221.511 299.692C223.625 304.14 226.792 307.64 231.011 310.192C241.983 314.681 252.983 319.014 264.011 323.192C269.17 325.604 274.17 328.271 279.011 331.192C287.021 337.796 289.354 345.796 286.011 355.192C236.012 355.692 186.012 355.859 136.011 355.692C118.934 356.01 101.934 355.677 85.0108 354.692C83.5723 353.204 82.9056 351.37 83.0108 349.192C84.1839 340.848 88.1839 334.182 95.0108 329.192C108.354 322.744 122.021 317.078 136.011 312.192C142.511 309.692 147.011 305.192 149.511 298.692C150.011 290.365 150.177 282.032 150.011 273.692C151.003 281.174 151.336 288.84 151.011 296.692C152.441 296.613 153.775 296.946 155.011 297.692C155.679 294.886 156.345 292.22 157.011 289.692C157.869 300.143 154.202 308.643 146.011 315.192C130.041 322.175 114.041 329.175 98.0108 336.192C94.7971 339.124 92.4637 342.624 91.0108 346.692C154.344 348.025 217.678 348.025 281.011 346.692C279.546 342.59 277.212 339.09 274.011 336.192C257.678 329.192 241.344 322.192 225.011 315.192C220.693 311.877 217.526 307.711 215.511 302.692C214.595 295.372 213.762 288.038 213.011 280.692C204.02 285.911 194.354 288.911 184.011 289.692C180.919 289.685 177.919 289.185 175.011 288.192C169.094 285.397 163.094 282.897 157.011 280.692C155.458 278.788 154.458 276.955 154.011 275.192C156.728 276.025 158.395 274.858 159.011 271.692C167.703 278.869 177.703 282.369 189.011 282.192C214.06 275.309 230.394 259.476 238.011 234.692Z" fill="#5B6365"/>
<path fill-rule="evenodd" clip-rule="evenodd" d="M157.011 280.691C163.094 282.896 169.094 285.396 175.011 288.191C177.919 289.184 180.919 289.684 184.011 289.691C194.354 288.91 204.02 285.91 213.011 280.691C213.762 288.037 214.595 295.371 215.511 302.691C217.526 307.71 220.693 311.876 225.011 315.191C241.344 322.191 257.678 329.191 274.011 336.191C277.212 339.089 279.546 342.589 281.011 346.691C217.678 348.024 154.344 348.024 91.0107 346.691C92.4636 342.623 94.797 339.123 98.0107 336.191C114.041 329.174 130.041 322.174 146.011 315.191C154.202 308.642 157.869 300.142 157.011 289.691C157.011 286.691 157.011 283.691 157.011 280.691Z" fill="#EBEBEB"/>
</svg>
