<svg width="445" height="445" viewBox="0 0 445 445" fill="none" xmlns="http://www.w3.org/2000/svg">
<rect x="13.5" y="13.5" width="418" height="418" rx="42.5" fill="#EAEBEA" stroke="#00B9B7" stroke-width="25"/>
<path fill-rule="evenodd" clip-rule="evenodd" d="M293.131 114.808C302.114 132.639 304.806 151.489 301.21 171.359C299.684 171.555 298.337 171.171 297.171 170.205C296.431 156.058 291.814 143.363 283.321 132.12C279.747 127.769 275.515 124.306 270.626 121.733C267.632 122.639 265.131 124.177 263.124 126.349C239.979 134.731 216.512 135.5 192.724 128.657C187.204 127.398 181.625 126.244 175.99 125.195C168.752 126.253 163.367 130.1 159.832 136.736C153.326 147.375 150.056 158.916 150.022 171.359C148.484 171.359 146.944 171.359 145.406 171.359C143.897 159.041 143.897 146.731 145.406 134.428C154.475 101.718 176.018 83.0598 210.036 78.4537C226.278 76.6852 242.05 78.6086 257.354 84.2243C267.141 88.2325 273.104 95.3498 275.243 105.575C277.814 108.424 281.085 109.77 285.052 109.615C288.171 110.783 290.863 112.514 293.131 114.808Z" fill="#E9E9E9"/>
<path fill-rule="evenodd" clip-rule="evenodd" d="M289.669 103.267C288.816 103.116 288.047 103.308 287.361 103.844C289.547 105.089 289.931 106.629 288.515 108.46C290.439 109.999 292.362 111.538 294.286 113.077C293.644 113.519 293.26 114.096 293.132 114.808C290.864 112.513 288.171 110.782 285.053 109.614C281.085 109.77 277.814 108.423 275.243 105.575C273.104 95.3496 267.141 88.2323 257.354 84.2241C242.051 78.6084 226.279 76.685 210.036 78.4535C176.019 83.0596 154.475 101.718 145.406 134.428C145.623 132.578 145.046 131.038 143.675 129.811C143.291 130.581 142.905 131.35 142.521 132.119C141.526 130.288 140.756 128.364 140.213 126.349C139.945 127.777 139.368 128.931 138.481 129.811C141.947 115.377 148.872 102.874 159.255 92.3028C189.603 68.1651 223.072 62.7793 259.662 76.1453C271.355 80.7104 278.664 88.9813 281.59 100.959C284.651 100.855 287.344 101.623 289.669 103.267Z" fill="#586061"/>
<path fill-rule="evenodd" clip-rule="evenodd" d="M283.899 237.143C275.108 265.747 256.257 284.02 227.348 291.963C214.297 292.168 202.756 288.128 192.725 279.845C175.622 267.929 165.619 251.772 162.718 231.373C193.087 234.447 212.322 221.175 220.423 191.556C224.948 190.449 228.603 191.796 231.387 195.595C239.085 222.447 256.974 234.949 285.053 233.104C284.087 234.271 283.703 235.618 283.899 237.143Z" fill="#EBEBEB"/>
<path fill-rule="evenodd" clip-rule="evenodd" d="M289.669 103.268C293.297 103.999 296.182 105.922 298.325 109.038C310.607 128.559 314.646 149.718 310.443 172.514C313.217 172.39 315.332 173.545 316.791 175.976C317.561 179.823 317.561 183.671 316.791 187.517C314.269 189.165 311.961 191.089 309.866 193.288C309.193 200.79 307.655 208.1 305.25 215.216C303.073 221.238 299.226 225.854 293.709 229.065C293.35 233.208 292.388 237.055 290.823 240.606C289.195 238.253 286.887 237.099 283.899 237.144C283.703 235.618 284.087 234.271 285.053 233.104C256.974 234.95 239.085 222.447 231.387 195.596C228.603 191.797 224.948 190.45 220.423 191.557C212.322 221.176 193.087 234.448 162.718 231.373C165.619 251.772 175.622 267.93 192.725 279.846C192.014 283.5 190.09 284.846 186.954 283.885C187.47 285.92 188.624 288.035 190.416 290.233C190.416 293.695 190.416 297.157 190.416 300.62C189.648 303.537 188.879 306.614 188.108 309.852C186.682 308.991 185.142 308.607 183.492 308.698C183.867 299.636 183.482 290.789 182.338 282.154C165.895 267.366 155.7 248.901 151.754 226.757C144.057 217.913 140.21 207.526 140.213 195.596C138.289 192.134 135.596 189.441 132.134 187.517C131.364 184.439 131.364 181.362 132.134 178.284C134.689 175.411 136.036 171.948 136.173 167.898C134.091 154.962 134.861 142.267 138.482 129.812C139.368 128.931 139.945 127.777 140.213 126.35C140.756 128.365 141.526 130.289 142.521 132.12C142.905 131.35 143.291 130.582 143.675 129.812C145.046 131.039 145.623 132.578 145.406 134.428C143.898 146.731 143.898 159.042 145.406 171.36C146.945 171.36 148.484 171.36 150.023 171.36C150.056 158.916 153.327 147.375 159.833 136.737C163.368 130.101 168.753 126.254 175.99 125.196C181.625 126.245 187.204 127.399 192.725 128.658C191.95 130.213 191.95 131.559 192.725 132.697C190.188 133.128 187.687 133.705 185.223 134.428C182.555 132.868 179.669 132.098 176.567 132.12C174.452 132.218 172.913 132.988 171.951 134.428C164.351 143.366 160.119 153.753 159.255 165.589C158.178 166.822 157.792 168.36 158.101 170.206C167.334 170.206 176.567 170.206 185.8 170.206C195.524 171.713 205.143 173.83 214.653 176.553C221.193 177.323 227.732 177.323 234.272 176.553C243.013 173.828 251.862 171.713 260.817 170.206C270.05 170.206 279.282 170.206 288.515 170.206C288.856 167.626 288.47 165.318 287.361 163.281C286.157 153.561 282.695 144.713 276.974 136.737C274.98 134.745 272.672 133.206 270.05 132.12C266.802 133.973 263.34 135.127 259.663 135.583C255.345 136.622 253.037 135.084 252.738 130.966C255.87 131.255 258.948 131.447 261.971 131.543C261.201 131.159 260.432 130.773 259.663 130.389C261.458 129.558 262.612 128.211 263.125 126.35C265.132 124.178 267.633 122.639 270.627 121.733C275.515 124.307 279.747 127.769 283.322 132.12C291.815 143.364 296.431 156.059 297.171 170.206C298.338 171.172 299.685 171.556 301.21 171.36C304.807 151.49 302.114 132.64 293.132 114.809C293.26 114.097 293.644 113.52 294.286 113.078C292.362 111.539 290.439 110 288.515 108.461C289.931 106.63 289.547 105.09 287.361 103.845C288.047 103.309 288.816 103.116 289.669 103.268Z" fill="#555D5C"/>
<path fill-rule="evenodd" clip-rule="evenodd" d="M261.971 177.13C277.434 176.868 292.822 177.829 308.135 180.015C309.068 180.371 309.837 180.948 310.443 181.746C306.988 184.242 304.103 187.318 301.788 190.979C301.703 201.131 299.202 210.556 294.286 219.255C276.792 228.191 261.211 225.691 247.545 211.753C241.332 203.506 238.64 194.273 239.466 184.055C246.706 180.419 254.207 178.111 261.971 177.13Z" fill="#00B9B7"/>
<path fill-rule="evenodd" clip-rule="evenodd" d="M148.868 199.058C148.868 196.365 148.868 193.672 148.868 190.979C150.792 190.979 152.715 190.979 154.639 190.979C154.467 189.765 154.658 188.611 155.216 187.517C157.174 185.835 158.905 183.913 160.409 181.746C157.922 181.168 155.998 180.014 154.639 178.284C169.313 176.538 183.931 177.115 198.495 180.015C202.997 180.795 207.036 182.527 210.613 185.209C210.493 205.348 200.683 218.236 181.183 223.871C160.476 228.349 149.704 220.079 148.868 199.058Z" fill="#00B9B7"/>
<path fill-rule="evenodd" clip-rule="evenodd" d="M162.718 180.592C164.96 182.779 166.692 185.471 167.911 188.671C169.572 186.622 170.726 184.314 171.374 181.746C172.404 180.348 173.366 180.348 174.259 181.746C172.447 185.872 170.139 189.718 167.334 193.287C165.993 190.605 164.646 187.911 163.295 185.208C161.371 188.286 159.448 191.363 157.525 194.441C157.149 192.072 157.535 189.763 158.679 187.516C160.33 185.365 161.676 183.057 162.718 180.592Z" fill="#CFEBE0"/>
<path fill-rule="evenodd" clip-rule="evenodd" d="M154.639 178.284C155.999 180.014 157.923 181.168 160.41 181.746C158.906 183.913 157.175 185.835 155.216 187.517C154.659 188.611 154.467 189.765 154.639 190.979C152.715 190.979 150.792 190.979 148.869 190.979C148.869 193.672 148.869 196.365 148.869 199.058C147.926 196.208 147.349 193.132 147.137 189.825C144.56 187.248 142.059 184.747 139.636 182.323C139.803 181.432 140.187 180.663 140.79 180.015C145.312 178.681 149.928 178.104 154.639 178.284Z" fill="#00B9B7"/>
<path fill-rule="evenodd" clip-rule="evenodd" d="M287.361 163.28C288.47 165.317 288.855 167.625 288.515 170.205C279.282 170.205 270.049 170.205 260.816 170.205C269.451 169.06 278.299 168.676 287.361 169.051C287.361 167.127 287.361 165.204 287.361 163.28Z" fill="#878A89"/>
<path fill-rule="evenodd" clip-rule="evenodd" d="M159.254 165.589C159.254 166.743 159.254 167.897 159.254 169.051C168.317 168.676 177.164 169.06 185.799 170.205C176.566 170.205 167.333 170.205 158.1 170.205C157.791 168.36 158.177 166.821 159.254 165.589Z" fill="#858887"/>
<path fill-rule="evenodd" clip-rule="evenodd" d="M287.361 163.281C287.361 165.205 287.361 167.128 287.361 169.051C278.299 168.676 269.451 169.061 260.816 170.206C251.861 171.713 243.013 173.828 234.272 176.553C227.731 177.323 221.192 177.323 214.652 176.553C205.142 173.829 195.524 171.713 185.799 170.206C177.164 169.061 168.317 168.676 159.255 169.051C159.255 167.897 159.255 166.743 159.255 165.589C160.118 153.753 164.35 143.366 171.95 134.428C173.47 134.058 175.01 133.674 176.566 133.274C198.265 141.579 220.577 144.08 243.505 140.776C249.364 140.089 254.75 138.358 259.662 135.582C263.339 135.127 266.801 133.972 270.049 132.12C272.671 133.206 274.979 134.745 276.974 136.737C282.695 144.713 286.157 153.561 287.361 163.281Z" fill="#EAEAE9"/>
<path fill-rule="evenodd" clip-rule="evenodd" d="M263.125 126.349C262.612 128.21 261.458 129.557 259.662 130.388C260.432 130.772 261.201 131.158 261.97 131.542C258.948 131.446 255.87 131.254 252.738 130.965C253.036 135.083 255.345 136.621 259.662 135.581C254.75 138.357 249.364 140.088 243.505 140.775C220.577 144.079 198.265 141.578 176.567 133.273C175.01 133.673 173.47 134.057 171.95 134.427C172.913 132.987 174.451 132.217 176.567 132.119C179.669 132.097 182.554 132.867 185.222 134.427C187.686 133.704 190.187 133.127 192.724 132.696C191.95 131.558 191.95 130.211 192.724 128.657C216.513 135.5 239.979 134.731 263.125 126.349Z" fill="#5E6666"/>
<path fill-rule="evenodd" clip-rule="evenodd" d="M283.899 237.143C286.887 237.098 289.195 238.252 290.823 240.605C286.689 257.25 278.034 271.099 264.856 282.153C264.086 292.156 264.086 302.157 264.856 312.16C267.296 317.293 270.951 321.333 275.82 324.278C288.483 329.459 301.178 334.459 313.905 339.281C319.859 342.065 325.63 345.143 331.217 348.514C340.461 356.136 343.154 365.369 339.296 376.213C281.592 376.79 223.886 376.982 166.18 376.79C146.471 377.157 126.852 376.772 107.321 375.635C105.66 373.918 104.891 371.802 105.012 369.288C106.366 359.658 110.983 351.965 118.862 346.206C134.261 338.764 150.034 332.225 166.18 326.586C173.682 323.701 178.875 318.507 181.76 311.006C182.337 301.395 182.529 291.778 182.337 282.153C183.482 290.788 183.867 299.635 183.492 308.697C185.142 308.606 186.682 308.991 188.108 309.851C188.879 306.613 189.648 303.536 190.416 300.619C191.406 312.68 187.174 322.49 177.721 330.048C159.29 338.107 140.824 346.186 122.324 354.285C118.615 357.668 115.922 361.708 114.245 366.403C187.338 367.941 260.432 367.941 333.525 366.403C331.834 361.669 329.141 357.629 325.447 354.285C306.597 346.206 287.745 338.127 268.895 330.048C263.912 326.222 260.257 321.414 257.931 315.622C256.874 307.174 255.913 298.71 255.046 290.232C244.67 296.255 233.514 299.717 221.577 300.619C218.009 300.611 214.546 300.034 211.19 298.887C204.361 295.662 197.437 292.777 190.416 290.232C188.624 288.034 187.47 285.919 186.954 283.884C190.09 284.845 192.013 283.499 192.724 279.845C202.756 288.128 214.297 292.167 227.348 291.963C256.257 284.019 275.108 265.746 283.899 237.143Z" fill="#5B6365"/>
<path fill-rule="evenodd" clip-rule="evenodd" d="M190.416 290.232C197.436 292.777 204.361 295.662 211.19 298.888C214.546 300.034 218.008 300.611 221.577 300.619C233.514 299.718 244.669 296.256 255.046 290.232C255.913 298.71 256.874 307.175 257.931 315.623C260.257 321.415 263.912 326.223 268.895 330.049C287.745 338.128 306.596 346.207 325.446 354.285C329.141 357.63 331.834 361.669 333.525 366.403C260.432 367.942 187.338 367.942 114.245 366.403C115.922 361.708 118.615 357.669 122.324 354.285C140.824 346.187 159.29 338.108 177.721 330.049C187.174 322.491 191.406 312.681 190.416 300.619C190.416 297.157 190.416 293.695 190.416 290.232Z" fill="#EBEBEB"/>
</svg>
